<?xml version="1.0" standalone="no"?>
<!DOCTYPE svg PUBLIC "-//W3C//DTD SVG 20010904//EN"
 "http://www.w3.org/TR/2001/REC-SVG-20010904/DTD/svg10.dtd">
<svg version="1.0" xmlns="http://www.w3.org/2000/svg"
 width="540.000000pt" height="540.000000pt" viewBox="0 0 540.000000 540.000000"
 preserveAspectRatio="xMidYMid meet">
<metadata>
Created by potrace 1.14, written by Peter Selinger 2001-2017
</metadata>
<g transform="translate(0.000000,540.000000) scale(0.100000,-0.100000)"
fill="#000000" stroke="none">
<path d="M0 2745 l0 -505 70 0 c39 0 70 3 71 8 0 4 1 101 2 217 l2 210 105 -1
105 -1 3 -216 2 -217 88 0 89 0 -1 505 -1 505 -87 0 -88 0 0 -200 0 -200 -108
0 -109 0 1 198 1 197 -73 3 -72 3 0 -506z"/>
<path d="M570 3237 c0 -6 41 -136 92 -287 l92 -275 1 -215 1 -215 89 0 90 0
-2 208 -1 209 98 291 99 292 -81 3 c-45 2 -85 -1 -89 -5 -6 -7 -48 -148 -95
-323 -8 -30 -16 -56 -18 -57 -2 -3 -68 227 -71 247 0 3 -9 35 -19 73 l-19 67
-83 0 c-61 0 -84 -3 -84 -13z"/>
<path d="M1325 3238 c-3 -7 -61 -353 -130 -768 -69 -415 -127 -765 -130 -778
-6 -23 -5 -23 102 -20 106 3 107 3 109 28 2 35 14 150 19 180 2 14 6 59 10
100 3 41 8 86 11 100 2 14 6 50 9 80 5 58 13 132 19 165 3 18 12 20 99 23 l96
3 6 -28 c3 -15 9 -41 13 -58 l8 -30 89 0 c108 0 102 -18 61 212 -8 45 -17 99
-21 120 -3 21 -8 50 -10 63 -6 26 -62 348 -71 409 -3 18 -8 43 -10 55 -3 11
-10 51 -16 89 l-10 67 -125 0 c-90 0 -125 -3 -128 -12z"/>
<path d="M1830 3088 c-1 -90 -2 -316 -3 -503 l-1 -340 87 -3 87 -3 1 43 c0 24
0 103 0 177 0 127 2 136 26 172 l26 39 42 -92 c23 -51 55 -120 70 -153 15 -33
41 -88 56 -122 l29 -63 95 0 c52 0 95 2 95 4 0 2 -25 57 -56 122 -31 66 -69
146 -84 179 -15 33 -53 113 -84 179 l-56 119 91 146 c50 80 99 157 109 171 9
14 24 40 34 58 l17 32 -89 0 -89 0 -84 -131 c-46 -71 -92 -140 -101 -151 -10
-11 -20 -29 -23 -39 -16 -48 -22 -7 -23 139 0 86 -1 163 -1 170 -1 8 -25 12
-86 12 l-85 0 0 -162z"/>
<path d="M2492 2843 l3 -408 25 -48 c50 -99 150 -161 256 -159 110 1 202 60
251 160 l28 57 1 390 c0 215 -1 396 -4 403 -3 8 -30 12 -88 12 l-84 0 1 -379
c0 -395 -1 -414 -43 -448 -26 -22 -86 -26 -113 -9 -60 40 -60 34 -60 450 l0
381 -88 3 -88 3 3 -408z"/>
<path d="M3173 2748 l2 -503 83 -3 c73 -2 82 -1 83 15 1 20 -3 285 -5 411 -1
45 1 82 4 82 3 0 16 -24 29 -52 14 -29 50 -107 81 -173 32 -66 74 -157 95
-202 l38 -83 69 0 69 0 -3 503 -3 502 -80 0 -80 0 2 -280 c1 -212 -1 -274 -9
-255 -17 37 -58 131 -73 165 -7 17 -32 75 -55 130 -59 139 -89 207 -99 225 -6
11 -29 16 -79 18 l-70 3 1 -503z"/>
<path d="M3848 3238 c-2 -7 -3 -233 -3 -503 l0 -490 87 -3 87 -3 3 38 c2 21 2
248 0 506 l-2 467 -84 0 c-58 0 -85 -4 -88 -12z"/>
<path d="M4150 2745 l0 -506 87 3 88 3 1 355 c1 195 3 361 3 369 1 8 33 -33
72 -92 40 -59 75 -104 80 -102 4 3 33 44 66 92 32 48 64 94 71 101 10 11 12
-60 12 -357 l0 -371 88 0 88 0 -1 503 -1 502 -96 3 -96 3 -63 -95 c-35 -53
-68 -94 -73 -93 -4 2 -36 43 -70 92 l-63 90 -96 3 -96 3 -1 -506z"/>
<path d="M4929 2810 c-1 -242 -1 -449 -1 -460 0 -11 0 -40 1 -65 l1 -45 235 0
235 0 0 90 0 89 -147 3 -148 3 -1 123 0 122 148 0 148 0 0 89 0 89 -137 0
c-76 0 -143 1 -149 1 -7 1 -11 39 -11 111 1 93 3 110 16 111 9 1 75 2 146 3
l130 1 3 88 3 87 -236 0 -235 0 -1 -440z"/>
</g>
</svg>
